<svg xmlns="http://www.w3.org/2000/svg" width="384" height="96" viewBox="0 0 384 96" shape-rendering="crispEdges">
<defs><style>.o{stroke:#111;stroke-width:3}.a{fill:#e7a51b}.h{fill:#ffcc35}.d{fill:#252932}.g{fill:#11151d}.r{fill:#ff4438}.v{fill:#293642}.f{fill:#ff9a1f}</style></defs><rect width="384" height="96" fill="none"/>
<g transform="translate(10 18)"><rect class="h o" x="18" y="8" width="30" height="19"/><rect class="d o" x="27" y="18" width="30" height="12"/><rect class="a o" x="13" y="30" width="34" height="32"/><rect class="d o" x="48" y="36" width="35" height="12"/><rect class="r" x="74" y="39" width="7" height="4"/><rect class="a o" x="5" y="33" width="13" height="18"/><rect class="v o" x="16" y="62" width="13" height="20"/><rect class="v o" x="35" y="62" width="13" height="20"/><rect class="g" x="12" y="80" width="21" height="7"/><rect class="g" x="31" y="80" width="22" height="7"/></g>
<g transform="translate(106 20)"><rect class="h o" x="22" y="5" width="31" height="19"/><rect class="d o" x="31" y="15" width="31" height="12"/><rect class="a o" x="15" y="28" width="35" height="30"/><rect class="d o" x="50" y="34" width="35" height="12"/><rect class="v o" x="5" y="56" width="17" height="16"/><rect class="v o" x="45" y="58" width="16" height="20"/><rect class="g" x="0" y="69" width="23" height="8"/><rect class="g" x="42" y="76" width="23" height="8"/></g>
<g transform="translate(200 18)"><rect class="h o" x="18" y="8" width="30" height="19"/><rect class="d o" x="27" y="18" width="30" height="12"/><rect class="a o" x="13" y="30" width="34" height="32"/><rect class="d o" x="48" y="35" width="46" height="13"/><rect class="d o" x="90" y="38" width="18" height="7"/><polygon class="f" points="110,31 138,42 110,52"/><rect class="v o" x="16" y="62" width="13" height="20"/><rect class="v o" x="35" y="62" width="13" height="20"/></g>
<g transform="translate(300 18)"><rect class="h o" x="17" y="10" width="29" height="18"/><rect class="d o" x="26" y="20" width="29" height="11"/><rect class="a o" x="13" y="31" width="32" height="31"/><rect class="d o" x="46" y="40" width="34" height="11"/><rect class="r" x="8" y="20" width="8" height="8"/><rect class="r" x="46" y="24" width="8" height="8"/><rect class="v o" x="15" y="62" width="13" height="20"/><rect class="v o" x="36" y="62" width="13" height="20"/><rect class="r" x="54" y="55" width="5" height="5"/><rect class="r" x="62" y="49" width="4" height="4"/></g>
</svg>
