<svg xmlns="http://www.w3.org/2000/svg" width="384" height="96" viewBox="0 0 384 96" shape-rendering="crispEdges">
<defs><style>.o{stroke:#07111f;stroke-width:3}.s{fill:#07111f}.b{fill:#0f9ec0}.l{fill:#42e8ff}.d{fill:#064961}.r{fill:#d72b42}.w{fill:#e8f7ff}.g{fill:#161b25}.y{fill:#ffe14d}.m{fill:#ff4fd8}</style></defs>
<rect width="384" height="96" fill="none"/>
<g transform="translate(8 16)"><rect class="r" x="18" y="4" width="34" height="7"/><rect class="r" x="2" y="6" width="18" height="5"/><rect class="w o" x="25" y="12" width="22" height="18"/><rect class="b o" x="16" y="30" width="32" height="34"/><rect class="l" x="23" y="35" width="10" height="20"/><rect class="g o" x="48" y="36" width="34" height="12"/><rect class="g o" x="74" y="39" width="14" height="6"/><rect class="b o" x="8" y="31" width="14" height="20"/><rect class="d o" x="17" y="63" width="12" height="22"/><rect class="d o" x="36" y="63" width="12" height="22"/><rect class="g" x="13" y="82" width="20" height="7"/><rect class="g" x="32" y="82" width="22" height="7"/></g>
<g transform="translate(104 16)"><rect class="r" x="18" y="3" width="38" height="7"/><rect class="r" x="0" y="5" width="18" height="5"/><rect class="w o" x="27" y="12" width="22" height="18"/><rect class="b o" x="18" y="30" width="34" height="31"/><rect class="g o" x="50" y="36" width="35" height="12"/><rect class="d o" x="8" y="58" width="18" height="16"/><rect class="d o" x="45" y="61" width="16" height="20"/><rect class="g" x="0" y="72" width="24" height="8"/><rect class="g" x="42" y="78" width="25" height="8"/><rect class="l" x="26" y="35" width="10" height="16"/></g>
<g transform="translate(200 8)"><rect class="r" x="20" y="4" width="38" height="7"/><rect class="w o" x="30" y="14" width="22" height="18"/><rect class="b o" x="18" y="32" width="36" height="31"/><rect class="g o" x="52" y="37" width="34" height="12"/><rect class="d o" x="10" y="60" width="17" height="20"/><rect class="d o" x="42" y="64" width="17" height="18"/><rect class="l" x="27" y="36" width="11" height="16"/></g>
<g transform="translate(296 16)"><rect class="r" x="18" y="3" width="38" height="7"/><rect class="w o" x="27" y="12" width="22" height="18"/><rect class="b o" x="18" y="30" width="34" height="34"/><rect class="l" x="26" y="35" width="10" height="20"/><rect class="g o" x="50" y="35" width="45" height="13"/><rect class="g o" x="90" y="38" width="18" height="7"/><rect class="d o" x="16" y="63" width="12" height="22"/><rect class="d o" x="38" y="63" width="12" height="22"/><polygon class="l" points="111,35 143,41 111,48"/><rect class="y" x="104" y="39" width="14" height="5"/></g>
</svg>
